<svg id="圖層_1" data-name="圖層 1" xmlns="http://www.w3.org/2000/svg" viewBox="0 0 30 30"><defs><style>.cls-1{fill:#12406a;}</style></defs><path class="cls-1" d="M30,15A15,15,0,1,1,15,0,15,15,0,0,1,30,15ZM15.4,5a7.84,7.84,0,0,0-7,3.86.72.72,0,0,0,.17,1l2.1,1.59a.72.72,0,0,0,1-.13C12.7,9.89,13.45,9.1,15.09,9.1c1.24,0,2.76.79,2.76,2,0,.91-.74,1.37-2,2.06-1.43.79-3.31,1.79-3.31,4.27v.24a.73.73,0,0,0,.73.73h3.38a.73.73,0,0,0,.73-.73v-.08c0-1.72,5-1.79,5-6.45C22.45,7.62,18.81,5,15.4,5ZM15,20a2.78,2.78,0,1,0,2.78,2.78A2.79,2.79,0,0,0,15,20Z"/></svg>