<svg id="圖層_1" data-name="圖層 1" xmlns="http://www.w3.org/2000/svg" viewBox="0 0 20 17"><defs><style>.cls-1{fill:#e93030;}.cls-2{fill:#444;}</style></defs><path class="cls-1" d="M-.38,2.11c.07.28.13.63.19,1.05s.1.84.12,1.25S0,5.2,0,5.55s0,.65,0,.88v.32a21.15,21.15,0,0,1-.38,4.68A2.53,2.53,0,0,1-1,12.48a2.28,2.28,0,0,1-1.08.63,13.83,13.83,0,0,1-2.5.27c-1.23.06-2.36.1-3.38.12H-9.5a40.08,40.08,0,0,1-7.41-.39,2.27,2.27,0,0,1-1.71-1.68,11.82,11.82,0,0,1-.26-1.85c-.06-.79-.1-1.45-.12-2V6.75a20.87,20.87,0,0,1,.38-4.64A2.49,2.49,0,0,1-18,1,2.36,2.36,0,0,1-16.91.39a13.83,13.83,0,0,1,2.5-.27C-13.18.06-12,0-11,0H-9.5A40.08,40.08,0,0,1-2.09.39,2.36,2.36,0,0,1-1,1,2.49,2.49,0,0,1-.38,2.11ZM-11.45,9.63l5-2.88-5-2.85Z"/><path class="cls-2" d="M0,2.4V.7A.68.68,0,0,1,.66,0H19.3a.67.67,0,0,1,.7.66V2.4a.67.67,0,0,1-.66.7H.7A.68.68,0,0,1,0,2.44Zm0,7V7.6a.68.68,0,0,1,.66-.7H19.3a.67.67,0,0,1,.7.66V9.3a.67.67,0,0,1-.66.7H.7A.55.55,0,0,1,0,9.6.65.65,0,0,1,0,9.4Zm0,6.9V14.6a.68.68,0,0,1,.66-.7H19.3a.67.67,0,0,1,.7.66V16.3a.67.67,0,0,1-.66.7H.7a.68.68,0,0,1-.7-.66Z"/></svg>