<svg id="圖層_1" data-name="圖層 1" xmlns="http://www.w3.org/2000/svg" viewBox="0 0 18 14.63"><defs><style>.cls-1{fill:#0db2ff;}</style></defs><path class="cls-1" d="M16.14,3.66a2.34,2.34,0,0,1,0,.45,10.29,10.29,0,0,1-.7,3.71,11.67,11.67,0,0,1-2,3.38,9.49,9.49,0,0,1-3.32,2.48,10.57,10.57,0,0,1-4.5.94A10.26,10.26,0,0,1,0,13a7.78,7.78,0,0,0,.88,0,7.33,7.33,0,0,0,4.6-1.58,3.43,3.43,0,0,1-2.16-.72A3.65,3.65,0,0,1,2,8.89a5.22,5.22,0,0,0,.67,0,4.67,4.67,0,0,0,1-.11,3.49,3.49,0,0,1-1.51-.7A3.85,3.85,0,0,1,1.12,6.84,3.66,3.66,0,0,1,.74,5.2V5.13a3.34,3.34,0,0,0,1.65.49A3.53,3.53,0,0,1,.74,2.53,3.48,3.48,0,0,1,1.27.67,10.13,10.13,0,0,0,4.62,3.41,10.41,10.41,0,0,0,8.86,4.54a5,5,0,0,1-.07-.85,3.6,3.6,0,0,1,1.07-2.6A3.5,3.5,0,0,1,12.45,0a3.56,3.56,0,0,1,2.7,1.16A7.46,7.46,0,0,0,17.51.28a3.64,3.64,0,0,1-1.62,2A7.62,7.62,0,0,0,18,1.72,8.37,8.37,0,0,1,16.14,3.66Z"/></svg>