<?xml version="1.0" encoding="utf-8"?>
<!-- Generator: Adobe Illustrator 25.4.1, SVG Export Plug-In . SVG Version: 6.00 Build 0)  -->
<svg version="1.1" id="圖層_1" xmlns="http://www.w3.org/2000/svg" xmlns:xlink="http://www.w3.org/1999/xlink" x="0px" y="0px"
	 viewBox="0 0 18 18" style="enable-background:new 0 0 18 18;" xml:space="preserve">
<style type="text/css">
	.st0{fill:#FFFFFF;}
</style>
<g>
	<path class="st0" d="M18,9c0,5-4,9-9,9s-9-4-9-9s4-9,9-9S18,4,18,9z M10.7,7.8H4.1c-0.5,0-0.9,0.4-0.9,0.9v0.6
		c0,0.5,0.4,0.9,0.9,0.9h6.6L8,12.8c-0.4,0.3-0.4,0.9,0,1.2l0.4,0.4c0.3,0.3,0.9,0.3,1.2,0l4.8-4.8c0.3-0.3,0.3-0.9,0-1.2L9.6,3.6
		c-0.3-0.3-0.9-0.3-1.2,0L7.9,4C7.6,4.3,7.6,4.9,8,5.2L10.7,7.8z"/>
</g>
</svg>
