<svg id="圖層_1" data-name="圖層 1" xmlns="http://www.w3.org/2000/svg" viewBox="0 0 16 16"><defs><style>.cls-1{fill:#e63480;}</style></defs><path class="cls-1" d="M16,4.71c0,.65,0,1.74,0,3.29s0,2.64,0,3.29a4.9,4.9,0,0,1-1.3,3.37,4.8,4.8,0,0,1-3.37,1.27C10.64,16,9.55,16,8,16s-2.64,0-3.29-.07a4.85,4.85,0,0,1-3.35-1.29,3.37,3.37,0,0,1-.75-1,5,5,0,0,1-.41-1.1,5.22,5.22,0,0,1-.13-1.25C0,10.64,0,9.55,0,8S0,5.35.07,4.68A4.81,4.81,0,0,1,1.36,1.36,4.78,4.78,0,0,1,4.71,0C5.36,0,6.45,0,8,0s2.64,0,3.29,0a4.9,4.9,0,0,1,3.37,1.3A4.9,4.9,0,0,1,16,4.71Zm-1.71,8a4.08,4.08,0,0,0,.18-.73c.05-.3.08-.65.11-1.07s0-.76,0-1V6.11q0-.39,0-1c0-.42-.06-.77-.11-1.07a4.08,4.08,0,0,0-.18-.73,2.6,2.6,0,0,0-1.54-1.54A4.08,4.08,0,0,0,12,1.57c-.3-.05-.65-.08-1.07-.11l-1,0H6.11l-1,0c-.42,0-.77.06-1.07.11a4.08,4.08,0,0,0-.73.18A2.6,2.6,0,0,0,1.75,3.29,4.08,4.08,0,0,0,1.57,4c-.05.3-.08.65-.11,1.07s0,.75,0,1V9.52c0,.22,0,.52,0,.87s0,.66.05.91a7.13,7.13,0,0,0,.11.77,4.55,4.55,0,0,0,.14.64,2.71,2.71,0,0,0,1.54,1.54,4.08,4.08,0,0,0,.73.18c.3.05.65.08,1.07.11l1,0h3.8l1,0c.42,0,.77-.06,1.07-.11a4.08,4.08,0,0,0,.73-.18A2.71,2.71,0,0,0,14.25,12.71ZM5.09,5.09A4,4,0,0,1,8,3.89a4,4,0,0,1,2.91,1.2A4,4,0,0,1,12.11,8,4.1,4.1,0,0,1,8,12.11a4,4,0,0,1-2.91-1.2A4,4,0,0,1,3.89,8,4,4,0,0,1,5.09,5.09Zm1,4.8A2.55,2.55,0,0,0,8,10.68a2.55,2.55,0,0,0,1.89-.79A2.55,2.55,0,0,0,10.68,8a2.55,2.55,0,0,0-.79-1.89A2.55,2.55,0,0,0,8,5.32a2.55,2.55,0,0,0-1.89.79A2.55,2.55,0,0,0,5.32,8,2.55,2.55,0,0,0,6.11,9.89ZM13,3.05a.93.93,0,0,1,.26.66,1,1,0,0,1-.26.68.88.88,0,0,1-.66.29.92.92,0,0,1-.68-.29.92.92,0,0,1-.29-.68.88.88,0,0,1,.29-.66,1,1,0,0,1,.68-.26A.93.93,0,0,1,13,3.05Z"/></svg>