<svg id="圖層_1" data-name="圖層 1" xmlns="http://www.w3.org/2000/svg" viewBox="0 0 24 24"><defs><style>.cls-1{fill:#0359ae;}</style></defs><path class="cls-1" d="M24,7.12v3.76A1.12,1.12,0,0,1,22.88,12H22.5v7.5A1.5,1.5,0,0,1,21,21v1.5A1.5,1.5,0,0,1,19.5,24h-.75a1.5,1.5,0,0,1-1.5-1.5V21H6.75v1.5A1.5,1.5,0,0,1,5.25,24H4.5A1.5,1.5,0,0,1,3,22.5V21a1.5,1.5,0,0,1-1.5-1.5V12H1.12A1.12,1.12,0,0,1,0,10.88V7.12A1.12,1.12,0,0,1,1.12,6H1.5V3.75C1.5,1.65,6.15,0,12,0S22.5,1.65,22.5,3.75V6h.38A1.12,1.12,0,0,1,24,7.12ZM20.25,4c-.66-.64-3.59-1.75-8.25-1.75S4.41,3.36,3.75,4V5.25h16.5Zm0,3.5H3.75v3h16.5Zm0,5.25H3.75v6h16.5Zm-15,3a1.5,1.5,0,1,1,1.5,1.5A1.5,1.5,0,0,1,5.25,15.75Zm10.5,0a1.5,1.5,0,1,1,1.5,1.5A1.5,1.5,0,0,1,15.75,15.75Z"/></svg>