<svg id="圖層_1" data-name="圖層 1" xmlns="http://www.w3.org/2000/svg" viewBox="0 0 16 16"><defs><style>.cls-1{fill:#444;}</style></defs><path class="cls-1" d="M16,8A8,8,0,1,1,8,0,8,8,0,0,1,16,8ZM1.68,9.29h2.5c0-.42,0-.85,0-1.29s0-.87,0-1.29H1.68a6.47,6.47,0,0,0,0,2.58ZM5.39,2.11A6.44,6.44,0,0,0,2.22,5.16H4.38A10.81,10.81,0,0,1,5.39,2.11Zm0,11.78a10.81,10.81,0,0,1-1-3.05H2.22A6.44,6.44,0,0,0,5.39,13.89ZM10.33,8c0-.45,0-.88-.07-1.29H5.74Q5.68,7.33,5.68,8t.06,1.29h4.52C10.3,8.88,10.33,8.45,10.33,8ZM6,5.16H10C9.57,2.88,8.6,1.55,8,1.55S6.43,2.88,6,5.16ZM10,10.84H6c.47,2.28,1.44,3.61,2,3.61S9.57,13.12,10,10.84Zm.57-8.73a10.81,10.81,0,0,1,1,3.05h2.16A6.44,6.44,0,0,0,10.61,2.11Zm3.17,8.73H11.62a10.81,10.81,0,0,1-1,3.05A6.44,6.44,0,0,0,13.78,10.84Zm.54-1.55a6.47,6.47,0,0,0,0-2.58h-2.5c0,.42,0,.85,0,1.29s0,.87,0,1.29Z"/></svg>