<svg id="圖層_1" data-name="圖層 1" xmlns="http://www.w3.org/2000/svg" viewBox="0 0 18 14"><defs><style>.cls-1{fill:#444;}</style></defs><path class="cls-1" d="M18,7.12a.55.55,0,0,1-.12.32l-.32.38a.49.49,0,0,1-.7.06L16,7.18V13a1,1,0,0,1-1,1H11a1,1,0,0,1-1-1V9.75H8V13a1,1,0,0,1-1,1H3a1,1,0,0,1-1-1V7.18l-.86.7A.55.55,0,0,1,.82,8a.55.55,0,0,1-.38-.18L.12,7.44A.55.55,0,0,1,0,7.11a.57.57,0,0,1,.18-.38L7.88.41A2,2,0,0,1,9,0a2,2,0,0,1,1.12.41L14.5,4V2.25A.25.25,0,0,1,14.75,2h1a.25.25,0,0,1,.25.25v3l1.82,1.5A.57.57,0,0,1,18,7.12ZM14.5,5.94,9,1.43,3.5,6V12.5h3V9.25a1,1,0,0,1,1-1h3a1,1,0,0,1,1,1V12.5h3Z"/></svg>