<?xml version="1.0" encoding="utf-8"?>
<!-- Generator: Adobe Illustrator 25.4.1, SVG Export Plug-In . SVG Version: 6.00 Build 0)  -->
<svg version="1.1" id="圖層_1" focusable="false" xmlns="http://www.w3.org/2000/svg" xmlns:xlink="http://www.w3.org/1999/xlink"
	 x="0px" y="0px" viewBox="0 0 20 20" style="enable-background:new 0 0 20 20;" xml:space="preserve">
<style type="text/css">
	.st0{fill:#FFFFFF;}
</style>
<path class="st0" d="M18.6,7.9h-6.4V1.4c0-0.8-0.6-1.4-1.4-1.4H9.3C8.5,0,7.9,0.6,7.9,1.4v6.4H1.4C0.6,7.9,0,8.5,0,9.3v1.4
	c0,0.8,0.6,1.4,1.4,1.4h6.4v6.4c0,0.8,0.6,1.4,1.4,1.4h1.4c0.8,0,1.4-0.6,1.4-1.4v-6.4h6.4c0.8,0,1.4-0.6,1.4-1.4V9.3
	C20,8.5,19.4,7.9,18.6,7.9z"/>
</svg>
