<svg id="圖層_1" data-name="圖層 1" xmlns="http://www.w3.org/2000/svg" viewBox="0 0 28 24.89"><defs><style>.cls-1{fill:#fff;}</style></defs><path class="cls-1" d="M28,16.33v6.23a2.34,2.34,0,0,1-2.33,2.33H2.33A2.34,2.34,0,0,1,0,22.56V16.33A2.34,2.34,0,0,1,2.33,14H6.82L4.58,11.76a2.33,2.33,0,0,1,1.65-4H9.34V2.33A2.33,2.33,0,0,1,11.67,0h4.67a2.33,2.33,0,0,1,2.33,2.33V7.78h3.11a2.33,2.33,0,0,1,1.65,4L21.19,14h4.48A2.34,2.34,0,0,1,28,16.33Zm-2.33,0H18.85l-3.2,3.21a2.34,2.34,0,0,1-3.3,0L9.14,16.33H2.33v6.23H25.67ZM14,17.89l7.78-7.78H16.33V2.33H11.67v7.78H6.22Zm8.56.39a1.17,1.17,0,1,1-1.17,1.16A1.16,1.16,0,0,1,22.56,18.28Z"/></svg>