<svg id="圖層_1" data-name="圖層 1" xmlns="http://www.w3.org/2000/svg" viewBox="0 0 16 16"><defs><style>.cls-1{fill:#444;}.cls-2{fill:#222;}</style></defs><path class="cls-1" d="M14.29,0A1.66,1.66,0,0,1,15.5.5,1.66,1.66,0,0,1,16,1.71V14.29A1.71,1.71,0,0,1,14.29,16H9.39V10.57h2.07L11.86,8H9.39V6.32c0-.9.48-1.36,1.43-1.36h1.11V2.79a11.1,11.1,0,0,0-2-.18A3.66,3.66,0,0,0,8.2,3,2.81,2.81,0,0,0,7,4.18,3.76,3.76,0,0,0,6.61,6V8H4.36v2.57H6.61V16H1.71A1.66,1.66,0,0,1,.5,15.5,1.66,1.66,0,0,1,0,14.29V1.71A1.66,1.66,0,0,1,.5.5,1.66,1.66,0,0,1,1.71,0Z"/><path class="cls-2" d="M-.22,14.9l-.89.88a.74.74,0,0,1-1,0l-3.12-3.12a.75.75,0,0,1-.22-.53v-.51A6.42,6.42,0,0,1-9.5,13,6.5,6.5,0,0,1-16,6.5,6.5,6.5,0,0,1-9.5,0,6.5,6.5,0,0,1-3,6.5a6.47,6.47,0,0,1-1.37,4h.51a.75.75,0,0,1,.53.22l3.11,3.11A.77.77,0,0,1-.22,14.9ZM-5.5,6.5a4,4,0,0,0-4-4,4,4,0,0,0-4,4,4,4,0,0,0,4,4A4,4,0,0,0-5.5,6.5Z"/></svg>