<?xml version="1.0" encoding="utf-8"?>
<!-- Generator: Adobe Illustrator 25.3.1, SVG Export Plug-In . SVG Version: 6.00 Build 0)  -->
<svg version="1.1" id="圖層_1" xmlns="http://www.w3.org/2000/svg" xmlns:xlink="http://www.w3.org/1999/xlink" x="0px" y="0px"
	 viewBox="0 0 16 16" style="enable-background:new 0 0 16 16;" xml:space="preserve">
<style type="text/css">
	.st0{fill:#222222;}
</style>
<path class="st0" d="M15.8,14.9l-0.9,0.9c-0.3,0.3-0.8,0.3-1,0c0,0,0,0,0,0l-3.1-3.1c-0.1-0.1-0.2-0.3-0.2-0.5v-0.5
	C9.4,12.5,8,13,6.5,13C2.9,13,0,10.1,0,6.5S2.9,0,6.5,0S13,2.9,13,6.5c0,1.4-0.5,2.8-1.4,4h0.5c0.2,0,0.4,0.1,0.5,0.2l3.1,3.1
	C16.1,14.1,16.1,14.6,15.8,14.9z M10.5,6.5c0-2.2-1.8-4-4-4s-4,1.8-4,4s1.8,4,4,4S10.5,8.7,10.5,6.5z"/>
</svg>
