<svg id="圖層_1" data-name="圖層 1" xmlns="http://www.w3.org/2000/svg" viewBox="0 0 30 40"><defs><style>.cls-1{fill:#eb8f90;}</style></defs><path class="cls-1" d="M30,8.75v27.5A3.75,3.75,0,0,1,26.25,40H3.75A3.75,3.75,0,0,1,0,36.25V8.75A3.75,3.75,0,0,1,3.75,5H10A5,5,0,0,1,20,5h6.25A3.75,3.75,0,0,1,30,8.75Zm-3.75.63a.63.63,0,0,0-.63-.63H22.5v2.5a1.25,1.25,0,0,1-1.25,1.25H8.75A1.25,1.25,0,0,1,7.5,11.25V8.75H4.38a.63.63,0,0,0-.63.63V35.62a.63.63,0,0,0,.63.63H25.62a.63.63,0,0,0,.63-.63ZM10.62,20a1.87,1.87,0,1,1-1.87-1.88A1.87,1.87,0,0,1,10.62,20Zm0,7.5a1.87,1.87,0,1,1-1.87-1.88A1.87,1.87,0,0,1,10.62,27.5ZM22.5,19.38v1.24a.63.63,0,0,1-.62.63H13.12a.63.63,0,0,1-.62-.63V19.38a.63.63,0,0,1,.62-.63h8.76A.63.63,0,0,1,22.5,19.38Zm0,7.5v1.24a.63.63,0,0,1-.62.63H13.12a.63.63,0,0,1-.62-.63V26.88a.63.63,0,0,1,.62-.63h8.76A.63.63,0,0,1,22.5,26.88ZM13.75,5A1.25,1.25,0,1,0,15,3.75,1.25,1.25,0,0,0,13.75,5Z"/></svg>