<svg id="圖層_1" data-name="圖層 1" xmlns="http://www.w3.org/2000/svg" viewBox="0 0 19 13.5"><defs><style>.cls-1{fill:#e93030;}</style></defs><path class="cls-1" d="M18.62,2.11c.07.28.13.63.19,1.05s.1.84.12,1.25,0,.79.05,1.14,0,.65,0,.88v.32a21.15,21.15,0,0,1-.38,4.68A2.53,2.53,0,0,1,18,12.48a2.28,2.28,0,0,1-1.08.63,13.83,13.83,0,0,1-2.5.27c-1.23.06-2.36.1-3.38.12H9.5a40.08,40.08,0,0,1-7.41-.39A2.27,2.27,0,0,1,.38,11.43,11.82,11.82,0,0,1,.12,9.58C.06,8.79,0,8.13,0,7.59V6.75A20.87,20.87,0,0,1,.38,2.11,2.49,2.49,0,0,1,1,1,2.36,2.36,0,0,1,2.09.39,13.83,13.83,0,0,1,4.59.12C5.82.06,7,0,8,0H9.5a40.08,40.08,0,0,1,7.41.39A2.36,2.36,0,0,1,18,1,2.49,2.49,0,0,1,18.62,2.11ZM7.55,9.63l5-2.88-5-2.85Z"/></svg>