<svg id="圖層_1" data-name="圖層 1" xmlns="http://www.w3.org/2000/svg" viewBox="0 0 21 24"><defs><style>.cls-1{fill:#0359ae;}</style></defs><path class="cls-1" d="M21,15.86c0,2.3-2.05,4.25-4.64,4.91l2.75,2.75a.28.28,0,0,1-.2.48H16.64a.65.65,0,0,1-.4-.16L13.41,21H7.59L4.76,23.84a.65.65,0,0,1-.4.16H2.09a.28.28,0,0,1-.2-.48l2.75-2.75C2.06,20.11,0,18.17,0,15.86V5.14C0,2.15,3.33,0,6.48,0h8C17.71,0,21,2.15,21,5.14ZM9.38,10.5V6.75H2.25V10.5ZM2.25,12.75v3.11c0,1.69,2.44,2.89,4.23,2.89h8c1.77,0,4.23-1.18,4.23-2.89V12.75ZM18.62,4.5c-.47-1.23-2.24-2.25-4.1-2.25h-8c-1.82,0-3.61,1-4.1,2.25ZM4.12,15.38A1.88,1.88,0,1,1,6,17.25,1.88,1.88,0,0,1,4.12,15.38Zm7.5-8.63V10.5h7.13V6.75ZM15,13.5a1.88,1.88,0,1,1-1.88,1.88A1.88,1.88,0,0,1,15,13.5Z"/></svg>