<svg id="圖層_1" data-name="圖層 1" xmlns="http://www.w3.org/2000/svg" viewBox="0 0 18 14"><defs><style>.cls-1{fill:#333;}</style></defs><path class="cls-1" d="M18,7.15a.44.44,0,0,1-.09.24l-.79,1a.43.43,0,0,1-.29.13.49.49,0,0,1-.24-.08L9.24,2.35a.4.4,0,0,0-.48,0L1.41,8.41a.49.49,0,0,1-.24.08.42.42,0,0,1-.29-.14l-.79-1A.44.44,0,0,1,0,7.15a.4.4,0,0,1,.14-.29L8.05.34A1.71,1.71,0,0,1,9,0,1.71,1.71,0,0,1,10,.34l2.8,2.3V.38A.38.38,0,0,1,13.12,0h1.75a.38.38,0,0,1,.38.38V4.7l2.61,2.16A.4.4,0,0,1,18,7.15ZM9,3.55a.53.53,0,0,1,.24.08L15,8.37V13.5a.5.5,0,0,1-.5.5H11a.5.5,0,0,1-.5-.5h0v-3A.5.5,0,0,0,10,10H8a.5.5,0,0,0-.5.5v3A.5.5,0,0,1,7,14H3.5a.5.5,0,0,1-.5-.5V8.38L8.76,3.63A.53.53,0,0,1,9,3.55Z"/></svg>