<?xml version="1.0" encoding="utf-8"?>
<!-- Generator: Adobe Illustrator 25.4.1, SVG Export Plug-In . SVG Version: 6.00 Build 0)  -->
<svg version="1.1" id="圖層_1" xmlns="http://www.w3.org/2000/svg" xmlns:xlink="http://www.w3.org/1999/xlink" x="0px" y="0px"
	 viewBox="0 0 100 68.6" style="enable-background:new 0 0 100 68.6;" xml:space="preserve">
<style type="text/css">
	.st0{filter:url(#Adobe_OpacityMaskFilter);}
	.st1{fill:#221714;}
	.st2{mask:url(#SVGID_1_);fill:#D8B98B;}
	.st3{fill:#D8B98B;}
</style>
<g>
	<defs>
		<filter id="Adobe_OpacityMaskFilter" filterUnits="userSpaceOnUse" x="75.4" y="12" width="21.6" height="20.9">
			<feFlood  style="flood-color:white;flood-opacity:1" result="back"/>
			<feBlend  in="SourceGraphic" in2="back" mode="normal"/>
		</filter>
	</defs>
	<mask maskUnits="userSpaceOnUse" x="75.4" y="12" width="21.6" height="20.9" id="SVGID_1_">
		<g class="st0">
			<g>
				<path class="st1" d="M78.3,22.2c0.1,0,0.2,0.1,0.5,0.3c0.2,0.2,0.6,0.5,1,0.8c0.2,0.1,0.5,0.2,0.7,0.2c0.1,0,0.2,0,0.3-0.1
					c0,0,0.1-0.1,0.1-0.1c0,0,0,0,0,0c0,0,0.1-0.1,0.1-0.1c0.2-0.2,0.2-0.3,0.2-0.5c-0.1-0.2-0.3-0.5-0.5-0.8
					c-0.1-0.2-0.3-0.3-0.4-0.5l-0.2-0.2c-0.1-0.1-0.2-0.2-0.3-0.3c-0.2-0.2-0.3-0.4-0.4-0.7c-0.1-0.2-0.2-0.6-0.1-0.9
					c0.1-0.3,0.2-0.6,0.4-0.8c0.2-0.2,0.4-0.3,0.6-0.4c0.4-0.1,0.8-0.1,1.2,0c0.7,0.2,1.1,0.7,1.2,1.1c0.1,0.4,0,0.6,0,0.6
					c-0.1,0-0.2-0.2-0.4-0.4C82,19.2,81.7,19,81.2,19c-0.2,0-0.5,0-0.7,0.1c-0.2,0.1-0.3,0.3-0.3,0.4c0,0.1,0.1,0.4,0.3,0.6
					c0.1,0.1,0.1,0.1,0.2,0.2c0.1,0.1,0.2,0.2,0.2,0.2c0.2,0.2,0.3,0.3,0.5,0.5c0.3,0.4,0.6,0.8,0.8,1.4c0.1,0.3,0.1,0.6,0,0.9
					c-0.1,0.1-0.1,0.3-0.2,0.4L82,23.8l0,0l0,0l0,0l0,0L81.8,24c0,0-0.1,0.1-0.1,0.1c-0.1,0-0.1,0.1-0.2,0.1
					c-0.1,0.1-0.3,0.1-0.4,0.2c-0.1,0-0.3,0.1-0.4,0.1c-0.1,0-0.3,0-0.4,0c-0.5-0.1-0.8-0.3-1.1-0.5c-0.5-0.4-0.8-0.9-0.9-1.2
					C78.2,22.4,78.2,22.2,78.3,22.2z"/>
			</g>
			<g>
				<path class="st1" d="M87.5,21.7c0,0,0-0.1,0.2-0.3c0.2-0.1,0.6-0.2,1,0.1c0.4,0.2,0.7,0.7,0.7,1.2c0,0.3,0,0.6-0.2,0.9
					c-0.1,0.1-0.2,0.3-0.3,0.4c-0.1,0.1-0.1,0.1-0.2,0.2c-0.1,0.1-0.1,0.1-0.2,0.1l-0.1,0l0,0l0,0l0,0l0,0h0l0,0l0,0
					c-0.1,0-0.2,0.1-0.3,0.1c-0.2,0-0.3,0-0.5,0c-0.3-0.1-0.6-0.2-0.8-0.4c-0.2-0.2-0.3-0.4-0.4-0.6c-0.1-0.2-0.1-0.5-0.1-0.7
					c0.1-0.4,0.3-0.7,0.5-0.8c0.2-0.1,0.3-0.1,0.3-0.1c0,0,0,0.2-0.1,0.3c-0.1,0.1-0.2,0.4-0.1,0.6c0,0.1,0.1,0.3,0.1,0.4
					c0.1,0.1,0.2,0.3,0.3,0.4c0.1,0.1,0.3,0.2,0.4,0.2c0.2,0,0.3,0,0.5-0.1c0.1,0,0.1-0.1,0.2-0.1c0,0,0.1-0.1,0.1-0.1
					c0.1,0,0.1-0.1,0.2-0.2c0.1-0.2,0.1-0.3,0.1-0.5c0-0.3-0.1-0.7-0.3-0.8c-0.2-0.2-0.4-0.2-0.6-0.2C87.6,21.8,87.5,21.8,87.5,21.7
					z"/>
			</g>
			<g>
				<g>
					<path class="st1" d="M88.8,28.2c-0.3-0.1-0.1-1.9,0.5-4c0.4-1,0.8-2,1.2-2.6c0.4-0.6,0.7-0.9,0.9-0.8c0.3,0.1-0.3,1.9-0.9,3.8
						C89.8,26.7,89.1,28.3,88.8,28.2z"/>
				</g>
				<g>
					<path class="st1" d="M90,24.7c0.1-0.2,0.5-0.1,1.1-0.2c0.2,0,0.3-0.1,0.5-0.1c0.1-0.1,0.3-0.1,0.5-0.2c0.3-0.2,0.6-0.5,0.7-0.8
						c0.1-0.4,0.1-0.7,0-1.1c-0.1-0.3-0.3-0.6-0.5-0.8c-0.2-0.2-0.4-0.3-0.6-0.4c-0.2-0.1-0.3-0.1-0.3-0.2c0-0.1,0.1-0.2,0.3-0.3
						c0.3-0.1,0.6-0.1,1.1,0.1c0.4,0.2,0.9,0.5,1.1,1.1c0.3,0.5,0.4,1.3,0.1,2c-0.3,0.7-0.7,1.1-1.3,1.4c-0.3,0.1-0.5,0.2-0.8,0.2
						c-0.3,0-0.5,0-0.7,0C90.3,25.3,89.9,24.8,90,24.7z"/>
				</g>
			</g>
			<g>
				<g>
					<path class="st1" d="M82.2,25.6c-0.2-0.1,0.1-1.9,0.8-4c0.8-2.2,1.7-3.8,1.9-3.7c0.2,0.1-0.4,1.8-1.1,3.9
						C83,23.9,82.4,25.6,82.2,25.6z"/>
				</g>
				<g>
					<path class="st1" d="M84.7,25.9c-0.1,0-0.2-0.4-0.1-1c0.1-0.5,0.3-1.3,0.4-2c0-0.2,0-0.3,0-0.5c0,0.1,0,0,0,0l0,0l0,0h0v0v0
						l0,0l0-0.1c0,0,0-0.1,0-0.1c0-0.1-0.1-0.1-0.1-0.2c-0.1-0.2-0.3-0.2-0.5-0.2c-0.4,0-0.7,0.3-0.8,0.2c0,0,0-0.1,0.1-0.3
						c0.1-0.1,0.3-0.3,0.6-0.5c0.2-0.1,0.4-0.1,0.6,0c0.2,0,0.5,0.1,0.6,0.3c0.1,0.1,0.2,0.2,0.2,0.3c0,0.1,0.1,0.1,0.1,0.2l0,0.1
						l0,0v0l0,0v0l0,0l0,0c0.1,0.2,0.1,0.5,0.1,0.7c0,0.5-0.1,0.9-0.3,1.3c-0.1,0.4-0.3,0.6-0.4,0.9C84.9,25.6,84.8,25.9,84.7,25.9z
						"/>
				</g>
			</g>
		</g>
	</mask>
	<path class="st2" d="M85.1,12.1c-5.9,0.7-10.2,5.9-9.6,11.6c0.2,1.9,1.8,4.5,2.1,5.1c0.4,0.6,0,3.4,0.4,4c0.4,0.6,2.7-1.2,3.5-1.2
		c0.8,0.1,3.3,1.4,5.9,1.2c5.9-0.7,10.2-5.9,9.6-11.6C96.4,15.5,91,11.4,85.1,12.1z"/>
	<g>
		<g>
			<path class="st3" d="M30.3,50.2L30.3,50.2C30.5,50.4,30.4,50.3,30.3,50.2z"/>
			<path class="st3" d="M63.2,10.7C59.4,6,53.4,2.7,47.5,1.4C33-1.6,19.2,6.9,14.1,20.4c-4.6-0.4-9,2-10.8,6.4
				c-0.5,1.1-1.9,8.5,1,8.4c6.6-0.2,13.1-0.5,19.7-0.8c-0.5,2.8-0.2,5.4,1.3,8.3c0.9,1.8,2.9,2.1,3.5,4.3c0.2,0.9,0,1.7,0.2,2.6
				c0.5,0.2,0.9,0.4,1.3,0.6c-0.2-0.2-0.1-0.1,0,0c0.5,0.6,1.9-3.9,2.1-4.3c0.8-2.2,1.9-2.1,2.9-3.8c2.2-3.6,4.4-6.9,6.4-10.7
				c0.3-0.7,0.6-1.4,0.9-2.1c4.5,0.1,13.4-0.2,14.2-0.2c3.1,0,1.4-6.3,8.5-5.8c1.5,0.1,1.6,0.1,2.6,0.3c0.5,0,0.7,0,0.9-0.3
				C70.5,21,64.5,12.3,63.2,10.7z M57,25.8c-0.9,0.9-10.7,1.8-11,1.8c-0.6,0-1.5-0.1-2.5-0.1c1.3-3.3,2.5-6.8,4.3-9.8
				c1.1-0.9-2.2-2.4-2.1-2.4c-1.8-0.9-1-2.5-3.5-1.3c-2,1-4.1,1-5.4,3c-0.8,1.3-1.9,2.4-3.1,3.5c-3.5,3.4-7,6.3-8.9,10.9
				c-0.2,0.4-0.3,0.8-0.4,1.2c-1.5,0.2-2.8,0.4-3.7,0.4c-5.2,0-15.9,1-16-2.8c0.1-3.1,2.5-6,5.4-7c1.6-0.6,4.1,0.3,5.4-0.4
				c1.2-0.6,2.3-4.9,2.9-6c4.7-8.1,13.4-13,22.5-13.4C52.8,3.6,63.2,10,66.8,21.5C63.4,20.7,59.4,21.2,57,25.8z"/>
		</g>
		<path class="st3" d="M33.9,30.4C34.1,30.5,33.8,30.3,33.9,30.4L33.9,30.4z"/>
	</g>
	<g>
		<path class="st3" d="M16.4,11.4c-0.1,0.7-2.4,0.9-2.9,1.1c-1.3,0.4-2.4,1.1-3.4,2c-0.9,0.9-1.5,2-1.9,3.1
			c-0.2,0.4-0.3,1.1-0.7,1.4c-0.5,0.3-0.8-0.9-0.9-1.2c-0.4-2.5,1.1-5,3.2-6.4c1-0.7,2.2-1,3.5-1.1C13.7,10.4,16.6,10.4,16.4,11.4z"
			/>
	</g>
	<g>
		<path class="st3" d="M0.1,19.5c-0.3-1.2,3.6-2.2,3.9-1C4.4,19.8,0.5,20.7,0.1,19.5C0,19.1,0.3,20,0.1,19.5z"/>
	</g>
	<g>
		<path class="st3" d="M4,14.7c-0.3,0.9-4.3-0.3-4-1.3C0.3,12.6,4.3,13.8,4,14.7C3.9,15.1,4.1,14.4,4,14.7z"/>
	</g>
	<g>
		<path class="st3" d="M6.8,11C5.9,11.9,1,7.4,1.9,6.4C2.7,5.5,7.7,10,6.8,11z"/>
	</g>
	<g>
		<path class="st3" d="M10,8.1C7.8,8.3,7.2,2.1,9.3,2C11.5,1.9,12.1,8,10,8.1C9.1,8.2,10.8,8.1,10,8.1z"/>
	</g>
	<g>
		<path class="st3" d="M20.1,2.4c1,0.9-4.1,6.4-5,5.5C14.2,7,19.2,1.5,20.1,2.4C20.5,2.7,19.8,2,20.1,2.4z"/>
	</g>
	<g>
		<path class="st3" d="M59.8,48.6c0.1-1.1,0.1-3,0-4c-0.1-1-0.5-1.8-0.9-2.2c-1-0.9-2.1-0.3-3,0.4l0-0.4c0-0.1-0.1-0.3-0.2-0.4
			c-0.2-0.2-0.6-0.1-0.8,0c-0.1,0.1-0.2,0.2-0.2,0.3l-2,6.1c0,0.2,0.1,0.3,0.2,0.3c0.3,0.1,1.1,0.2,1.5,0c0.1-0.1,0.2-0.2,0.3-0.3
			c0,0,0.9-3.3,1.6-4.3c0.6-0.8,1.8-1.1,2.1,0.3c0.3,1.4-0.1,3.1-0.3,4c0,0.2,0.1,0.3,0.2,0.3c0.3,0.2,1.1,0.1,1.4,0
			C59.7,48.8,59.8,48.7,59.8,48.6z"/>
		<path class="st3" d="M72.6,58.1c-0.9-0.8-1.9-0.3-2.8,0.4l0-0.4c0-0.1-0.1-0.2-0.2-0.3c-0.2-0.1-0.6-0.1-0.8,0
			c-0.1,0.1-0.2,0.2-0.2,0.3l-1.9,5.7c0,0.2,0.1,0.2,0.2,0.3c0.3,0.1,1,0.2,1.4,0c0.1,0,0.2-0.2,0.2-0.3c0,0,0.8-3,1.5-4
			c0.5-0.8,1.7-1,1.9,0.2c0.3,1.3-0.1,2.9-0.3,3.8c0,0.2,0.1,0.2,0.2,0.3c0.3,0.1,1,0.1,1.3,0c0.1,0,0.2-0.1,0.2-0.2
			c0.1-1,0.1-2.8,0-3.7C73.4,59.2,73.1,58.5,72.6,58.1z"/>
		<path class="st3" d="M70.5,48.2c0.4-1,1.9-8.6,2.3-10.9c0-0.2-0.2-0.3-0.3-0.4c-0.3-0.1-0.7-0.2-1-0.1c-0.2,0.1-0.3,0.3-0.3,0.4
			l-2.7,10.8C68.5,48.7,70.2,48.9,70.5,48.2z"/>
		<path class="st3" d="M86.4,54.6c0-0.2-0.2-0.3-0.3-0.4c-0.3-0.1-0.6-0.2-1-0.1c-0.2,0.1-0.3,0.2-0.3,0.4l-2,9.3
			c0,0.6,1.4,0.5,1.5,0.1c0.3-1.1,0.8-3.1,1.1-4.1C85.8,57.6,86,56.8,86.4,54.6z"/>
		<path class="st3" d="M76.6,40.7c0.5,0,0.9-0.3,1-0.8c0-0.2,0-0.5-0.1-0.6c-0.2-0.2-0.4-0.2-0.6-0.2c-0.5,0-0.9,0.3-1,0.8
			c-0.1,0.2,0,0.4,0.1,0.6C76.1,40.6,76.3,40.7,76.6,40.7z"/>
		<path class="st3" d="M78.5,47.8c1,0.4,2.5,0.5,3.4,0c2.1-1,1.5-3-0.4-3.7l-0.4-0.2c-2.9-1,0.3-1.6,1.4-1.2
			c0.6,0.2,0.7-0.5,0.7-0.5c0.3-1.1-1.8-0.9-1.9-0.9c-2.2,0.2-3.9,2.1-1.3,3.3c0.6,0.3,2.7,1,1.2,2c-1.3,0.9-1.8-1.2-2.8-1.1
			c-0.6,0.1-0.9,0.8-0.9,1.1C77.4,47.3,77.8,47.6,78.5,47.8z"/>
		<path class="st3" d="M84.6,48.2c0.4,0.1,1,0.2,1.4,0c0.1,0,0.2-0.2,0.3-0.4l0.9-4.6c0-0.1,0.3-0.9,1.3-0.8c0.8,0.1,1.7,1,2,5.2
			c0,0.2,0.1,0.3,0.2,0.4c0.4,0.2,1.1,0.1,1.5,0c0.2-0.1,0.2-0.2,0.2-0.3c-0.1-1.2-0.6-3-1-4.1c-0.4-1.1-1-2-1.5-2.4
			c-0.5-0.4-1.4-0.4-1.9-0.3c-0.2,0.1-0.6,0.2-0.6,0c0.3-1.4,0.7-4.4,0.9-5.4c0-0.2-0.1-0.3-0.3-0.4c-0.3-0.1-0.7-0.1-1,0
			c-0.1,0.1-0.3,0.2-0.3,0.3l-2.3,12.4C84.4,47.9,84.5,48.1,84.6,48.2z"/>
		<path class="st3" d="M49.6,58.3c0.3-0.4,0.2-1,0.1-1.3c-0.1-0.2-0.3-0.3-0.5-0.3l-4.1,0.4c0,0,0.3-1.5,1.1-2.4
			c0.7-0.8,4.3-0.5,4.3-0.5c0.1,0,0.4,0,0.6-0.2c0.4-0.4,0.3-1,0.2-1.2c-0.1-0.2-0.4-0.2-0.5-0.3c-1.5-0.3-3.4-0.1-5,0.4
			c-0.3,0.1-1,0.5-1.2,0.9c-1.9,3.1-5.3,10.5-5.2,11.7c0,0.2,0,0.3,0.3,0.5c0.5,0.2,1.6,0.3,2.3,0c0.2-0.1,0.4-0.3,0.4-0.4
			c0,0,1.2-6.1,2.6-7.1c0.6-0.5,4.2,0,4.2,0C49.2,58.6,49.5,58.5,49.6,58.3z"/>
		<path class="st3" d="M54.6,58.9c-0.2-0.4-0.5-0.4-0.9-0.4c-0.8,0.1-1.9,0.7-2,0.8l0.1-0.5c0-0.2-0.1-0.3-0.3-0.3
			c-0.2-0.1-0.7-0.1-0.9,0c-0.1,0.1-0.2,0.2-0.2,0.3l-1.9,5.2c0,0.2,0.1,0.3,0.2,0.4c0.3,0.2,1.3,0.1,1.6,0c0.1-0.1,0.2-0.2,0.3-0.3
			l0.9-3.4c0.1-0.4,0.6-0.6,1.1-0.7c0.5-0.1,0.7,0.3,1.1,0.4c0.2,0,0.3,0,0.3,0C54.5,60.2,54.9,59.6,54.6,58.9z"/>
		<path class="st3" d="M58,57.7c-0.2,0.1-0.3,0.2-0.6,0.2c-0.3,0-0.3-0.1-0.5-0.2c-0.2-0.1-0.3,0.1-0.3,0.2l-1.9,6.3
			c0,0.2,0.1,0.3,0.3,0.4c0.3,0.2,1.3,0.2,1.7,0c0.1-0.1,0.2-0.2,0.3-0.3l1.4-6.3C58.3,57.7,58.1,57.6,58,57.7z"/>
		<path class="st3" d="M56.9,56.6c0.8,0.9,2.6-0.4,1.7-1.3C57.8,54.4,56.1,55.7,56.9,56.6z"/>
		<path class="st3" d="M58.6,55.3C58.8,55.5,58.5,55.1,58.6,55.3L58.6,55.3z"/>
		<path class="st3" d="M62.1,63c-0.6-0.1-1.5-0.7-1.1-1.5c0-0.1,0.2-0.2,0.2-0.1c1.7,0.5,2.8,0.1,3.5-0.1c1.2-0.4,1.3-3.7-1.8-3.6
			c-2.4,0.1-3.5,2.2-3.4,4.3c0.1,1.9,1.8,2.4,3.4,2.3c1.5,0,2.2-0.2,2.7-0.7c0.2-0.2,0.2-0.7-0.2-1C64.8,62.4,63.7,63.2,62.1,63z
			 M63,58.9c1,0.1,1.2,0.8,1,1.1c-0.2,0.2-1.9,0.4-2.4,0C61.2,59.7,62,58.8,63,58.9z"/>
		<path class="st3" d="M82.8,53.1c-0.4-0.3-0.8-0.2-1.1-0.1c-0.1,0.1-0.2,0.2-0.3,0.3c-0.3,1-0.8,2.8-1.1,3.8c0,0.1-0.2,0.1-0.2,0.1
			c-2.1-1.2-3.8,0.1-4.8,2.1c-1.5,3.1,0.3,6.5,3.8,4.1l0,0.3c0,0.2,0.1,0.3,0.2,0.3c0.2,0.1,0.7,0.1,0.9,0c0.2-0.1,0.2-0.2,0.3-0.3
			l2.5-10.3C82.9,53.3,82.9,53.1,82.8,53.1z M79.2,61.7c-0.6,0.5-1.1,0.7-1.6,0.7c-2.4,0.1-0.2-5.6,2.1-3.5L79.2,61.7z"/>
		<path class="st3" d="M93.2,57c-0.1,0-0.2,0.2-0.3,0.2c-0.8,1.9-1.8,4.2-2.4,4.2c-0.7,0-1.2-2.3-1.6-4c0-0.1-0.2-0.3-0.4-0.4
			C88.3,57,88,57,87.7,57.2c-0.1,0.1-0.2,0.3-0.2,0.4c0.1,1.3,0.8,3.7,1.2,4.8c0.2,0.5,0.3,0.9,0.2,1.2c0,0.4-0.4,1-0.6,1.2
			c-1,1-2.3,0.2-3.1,1.4c-0.1,0.2-0.3,0.6-0.1,1c0.3,1,2.5,0.3,2.7,0.1c1.4-0.8,2.1-1.7,2.6-2.4c1.2-1.8,3.6-5.6,4.1-7.5
			c0-0.1,0-0.2,0-0.3C94.1,56.7,93.5,56.8,93.2,57z"/>
		<path class="st3" d="M76.6,43.9c0.5-1.3,1.2-3.5-1.1-2.3c-1.5,0.8-2.5,2.5-2.9,4.1c0,0.1,0,0.5,0.1,0.7c0.5,0.9,1.7,2.4,1.8,2
			c0.1-0.3,0-0.7,0.2-1c0.2-0.4,0.6-0.6,0.8-1C76,45.7,76.2,44.7,76.6,43.9z"/>
		<path class="st3" d="M68.2,49.6c0.2-0.3-0.7-0.6-1.2-0.7c0.5-1.5,0.8-2.8,0.8-3.9c0-0.1,0-0.3,0-0.4c0-0.9-0.3-1.7-0.9-2.3
			c-0.5-0.5-1.2-0.8-1.9-0.8c-1.6,0-2.9,1.4-3.1,3.1c-0.1,0.9,0.2,1.8,0.8,2.4c0.5,0.5,1.2,0.8,1.9,0.7c0.4,0,0.7-0.1,1-0.2
			c-0.2,0.5-0.3,0.8-0.4,1c0,0,0,0.1,0,0.1c-0.3,0-0.6,0-0.6,0c-1.2,0.1-2.9,0.5-4,1.1c-2.2,1.2-0.6,4.7,2.3,4.1
			c1.5-0.3,2.9-2,3.8-4.3C67,49.6,68.1,49.7,68.2,49.6z M63.2,52.2c-1,0.5-2.4-0.2-1.6-1.2c0.6-0.8,2.2-0.9,3.2-1.2
			C64.4,50.7,64,51.5,63.2,52.2z M66,44.7c-0.1,1-0.6,1.8-1.4,1.8c-0.4,0-0.6-0.2-0.8-0.3c-0.3-0.3-0.4-0.8-0.4-1.4
			c0.1-1,0.8-1.8,1.6-1.8c0.4,0,0.6,0.2,0.8,0.3C66,43.6,66,44.1,66,44.7z"/>
		<path class="st3" d="M49.9,49.1c0.1,0,0.5,0,0.6-0.1c0.6-0.4,0.6-1.1,0.4-1.7c0-0.1-0.2-0.5-0.5-0.5c-2.7-0.3-4.3-0.7-4.5-1.4
			c-0.2-0.5,0.1-2,0.6-3.7c1.3,0.1,3.2,0.2,5.3,0c1.3-0.1,1.5-1.4,1.1-1.8c-0.1-0.1-0.5-0.2-0.6-0.2L47.1,40c0.5-1.2,1-2.4,1.5-3
			c1.1-1.3,5.4-0.8,5.4-0.8c0.2,0,0.3,0,0.5-0.1c0.4-0.2,0.6-1,0.3-1.4c-0.1-0.2-0.4-0.4-0.6-0.4c-1.7-0.1-3.7-0.5-6,0.6
			c-0.3,0.1-1.1,0.7-1.5,1.4c-2,3.6-3.3,7.6-3,10c0,0.2,0.2,0.8,0.4,1C44.9,48.4,47.4,49,49.9,49.1z"/>
		<path class="st3" d="M91.9,50.4c0,0.1,0,0.1,0,0.2c0,0,0,0.1,0,0.1c0,0.1,0,0.1,0.1,0.1c0,0,0.1,0,0.1-0.1c0,0,0-0.1,0.1-0.1
			c0,0,0.1-0.1,0.1-0.1c0.1-0.1,0.3-0.3,0.6-0.5c0.3-0.1,0.8-0.2,1.2-0.2c0.5,0,1.1,0,1.5,0.2c1.1,0.5,2.2,1,3.2,0.9
			c0.5-0.1,0.7-0.3,0.9-0.5c0.2-0.2,0.2-0.3,0.2-0.3c-0.1-0.1-0.4,0.2-1.1,0.2c-0.4,0-0.8-0.1-1.2-0.3c-0.5-0.2-1-0.4-1.5-0.6
			l-0.1-0.1l0,0l0,0l0,0l0,0c-0.1,0-0.2-0.1-0.2-0.1c-0.2,0-0.3-0.1-0.5-0.1c-0.3,0-0.6,0-0.9,0c-0.6,0.1-1.1,0.2-1.5,0.4
			C92.2,49.8,92,50.1,91.9,50.4z"/>
		<path class="st3" d="M97.4,51.8c-0.5-0.2-1-0.4-1.5-0.7l-0.1,0l0,0l0,0l0,0l0,0c-0.1,0-0.2-0.1-0.3-0.1c-0.2,0-0.3-0.1-0.5-0.1
			c-0.3,0-0.6,0-0.9,0c-0.6,0-1.1,0.2-1.5,0.4c-0.4,0.2-0.6,0.6-0.7,0.8c0,0.1,0,0.1,0,0.2c0,0,0,0.1,0,0.1c0,0.1,0,0.1,0.1,0.1
			c0,0,0.1,0,0.1-0.1c0,0,0-0.1,0.1-0.1c0,0,0,0,0-0.1c0,0,0,0,0-0.1c0.1-0.1,0.3-0.3,0.7-0.4c0.3-0.1,0.7-0.2,1.2-0.2
			c0.5,0,1.1,0,1.5,0.2c1.1,0.5,2.2,1,3.1,0.9c0.5-0.1,0.8-0.3,1-0.5c0.2-0.2,0.2-0.3,0.1-0.3c-0.1-0.1-0.5,0.3-1.1,0.3
			C98.3,52.1,97.9,52,97.4,51.8z"/>
		<path class="st3" d="M100,53.9c-0.1-0.1-0.5,0.2-1.2,0.1c-0.3,0-0.7-0.1-1.1-0.3c-0.4-0.2-0.9-0.5-1.5-0.7l-0.1,0L96,53l-0.1,0h0
			l0,0c-0.1,0-0.2-0.1-0.3-0.1c-0.2,0-0.3-0.1-0.5-0.1c-0.3,0-0.6,0-0.9,0c-0.6,0.1-1.1,0.2-1.5,0.5c-0.4,0.3-0.6,0.6-0.7,0.9
			c0,0,0,0.1,0,0.1c0,0,0,0,0,0.1c0,0,0,0.1,0,0.1c0,0.1,0.1,0.1,0.1,0.1c0,0,0.1,0,0.1,0c0,0,0-0.1,0.1-0.1c0,0,0,0,0-0.1
			c0,0,0,0,0.1,0c0.1-0.1,0.3-0.3,0.6-0.4c0.3-0.1,0.7-0.1,1.2-0.2c0.5,0,1,0.1,1.4,0.2c1,0.5,2.2,1,3.2,0.8c0.5-0.1,0.8-0.3,1-0.5
			C100,54.1,100,54,100,53.9z"/>
	</g>
</g>
</svg>
